<svg width="24" height="19" viewBox="0 0 24 19" fill="none" xmlns="http://www.w3.org/2000/svg">
<path d="M20.4 0H3.6C2.64522 0 1.72955 0.375334 1.05442 1.04343C0.379285 1.71153 0 2.61767 0 3.5625V15.4375C0 16.3823 0.379285 17.2885 1.05442 17.9566C1.72955 18.6247 2.64522 19 3.6 19H20.4C21.3548 19 22.2705 18.6247 22.9456 17.9566C23.6207 17.2885 24 16.3823 24 15.4375V3.5625C24 2.61767 23.6207 1.71153 22.9456 1.04343C22.2705 0.375334 21.3548 0 20.4 0ZM3.6 2.375H20.4C20.7183 2.375 21.0235 2.50011 21.2485 2.72281C21.4736 2.94551 21.6 3.24756 21.6 3.5625L12 9.3575L2.4 3.5625C2.4 3.24756 2.52643 2.94551 2.75147 2.72281C2.97652 2.50011 3.28174 2.375 3.6 2.375ZM21.6 15.4375C21.6 15.7524 21.4736 16.0545 21.2485 16.2772C21.0235 16.4999 20.7183 16.625 20.4 16.625H3.6C3.28174 16.625 2.97652 16.4999 2.75147 16.2772C2.52643 16.0545 2.4 15.7524 2.4 15.4375V6.27L11.376 11.6969C11.5584 11.8011 11.7654 11.856 11.976 11.856C12.1866 11.856 12.3936 11.8011 12.576 11.6969L21.6 6.27V15.4375Z" fill="#6D63FF"/>
</svg>
