<svg width="143" height="33" viewBox="0 0 143 33" fill="none" xmlns="http://www.w3.org/2000/svg">
<rect x="14.7391" width="32.7391" height="5.86956" rx="2.93478" transform="rotate(90 14.7391 0)" fill="#0A9964"/>
<rect x="24" y="10.3044" width="15" height="5.86957" rx="2.93478" transform="rotate(90 24 10.3044)" fill="#0A9964"/>
<rect x="5.82077" y="7.04348" width="21.9915" height="5.82079" rx="2.9104" transform="rotate(90 5.82077 7.04348)" fill="#0A9964"/>
<path d="M47.112 27.288C43.704 27.288 40.896 25.296 39.936 22.32L42.648 21.144C43.512 23.208 45.24 24.432 47.28 24.432C48.984 24.432 50.112 23.568 50.112 22.248C50.112 21.192 49.488 20.544 48.24 20.136L44.808 19.032C42.024 18.144 40.608 16.392 40.608 14.04C40.608 10.968 43.056 8.832 46.584 8.832C49.8 8.832 52.344 10.608 53.304 13.296L50.616 14.496C49.92 12.72 48.432 11.688 46.584 11.688C44.928 11.688 43.824 12.576 43.824 13.896C43.824 14.88 44.472 15.672 45.768 16.08L49.056 17.112C51.912 18.024 53.328 19.656 53.328 22.056C53.328 25.128 50.784 27.288 47.112 27.288ZM59.8459 27.288C57.1099 27.288 55.3579 25.848 55.3579 23.544C55.3579 21.384 56.7979 19.872 59.8699 19.368L63.7579 18.744V18.312C63.7579 17.184 62.7979 16.344 61.3579 16.344C59.9899 16.344 58.9099 17.136 58.4299 18.312L55.8619 17.064C56.6299 15.024 58.8619 13.656 61.4779 13.656C64.6699 13.656 66.9019 15.576 66.9019 18.312V27H63.9259V25.608C62.9179 26.712 61.5739 27.288 59.8459 27.288ZM58.6219 23.424C58.6219 24.336 59.3659 24.888 60.4219 24.888C62.4139 24.888 63.7579 23.472 63.7579 21.672V21.144L60.4699 21.696C59.2219 21.936 58.6219 22.488 58.6219 23.424ZM74.4638 27.288C71.3918 27.288 69.5438 25.128 69.5438 21.936V13.944H72.6878V21.672C72.6878 23.328 73.7678 24.408 75.3278 24.408C76.8638 24.408 77.9678 23.328 77.9678 21.6V13.944H81.1118V27H78.1358V25.44C77.4158 26.664 76.0958 27.288 74.4638 27.288ZM89.9863 27.144C87.0343 27.144 85.3543 25.44 85.3543 22.512V16.752H83.0983V13.944H83.3383C84.6103 13.944 85.3543 13.248 85.3543 11.976V10.968H88.4983V13.944H91.4983V16.752H88.4983V22.344C88.4983 23.664 89.1703 24.384 90.7063 24.384C90.9223 24.384 91.2343 24.36 91.5463 24.312V27C91.0903 27.072 90.4663 27.144 89.9863 27.144ZM93.9484 12.48V9.12H97.0924V12.48H93.9484ZM93.9484 27V13.944H97.0924V27H93.9484ZM106.643 27.288C103.235 27.288 100.427 25.296 99.4673 22.32L102.179 21.144C103.043 23.208 104.771 24.432 106.811 24.432C108.515 24.432 109.643 23.568 109.643 22.248C109.643 21.192 109.019 20.544 107.771 20.136L104.339 19.032C101.555 18.144 100.139 16.392 100.139 14.04C100.139 10.968 102.587 8.832 106.115 8.832C109.331 8.832 111.875 10.608 112.835 13.296L110.147 14.496C109.451 12.72 107.963 11.688 106.115 11.688C104.459 11.688 103.355 12.576 103.355 13.896C103.355 14.88 104.003 15.672 105.299 16.08L108.587 17.112C111.443 18.024 112.859 19.656 112.859 22.056C112.859 25.128 110.315 27.288 106.643 27.288ZM119.377 27.288C116.641 27.288 114.889 25.848 114.889 23.544C114.889 21.384 116.329 19.872 119.401 19.368L123.289 18.744V18.312C123.289 17.184 122.329 16.344 120.889 16.344C119.521 16.344 118.441 17.136 117.961 18.312L115.393 17.064C116.161 15.024 118.393 13.656 121.009 13.656C124.201 13.656 126.433 15.576 126.433 18.312V27H123.457V25.608C122.449 26.712 121.105 27.288 119.377 27.288ZM118.153 23.424C118.153 24.336 118.897 24.888 119.953 24.888C121.945 24.888 123.289 23.472 123.289 21.672V21.144L120.001 21.696C118.753 21.936 118.153 22.488 118.153 23.424ZM130.664 27V16.752H128.36V13.944H130.664V13.512C130.664 10.536 132.584 8.832 135.608 8.832C135.992 8.832 136.496 8.88 136.832 8.952V11.664C136.544 11.616 136.232 11.592 136.016 11.592C134.624 11.592 133.808 12.192 133.808 13.512V13.944H141.512V27H138.368V16.752H133.808V27H130.664Z" fill="#1E1E1E"/>
</svg>
