<svg width="125" height="33" viewBox="0 0 125 33" fill="none" xmlns="http://www.w3.org/2000/svg">
<rect x="14.7391" width="32.7391" height="5.86956" rx="2.93478" transform="rotate(90 14.7391 0)" fill="#0A9964"/>
<rect x="24" y="10.3044" width="15" height="5.86957" rx="2.93478" transform="rotate(90 24 10.3044)" fill="#0A9964"/>
<rect x="5.82077" y="7.04348" width="21.9915" height="5.82079" rx="2.9104" transform="rotate(90 5.82077 7.04348)" fill="#0A9964"/>
<path d="M45.504 27L39.264 9.12H42.816L47.376 22.872L51.912 9.12H55.464L49.248 27H45.504ZM62.3871 27.288C58.5471 27.288 55.4751 24.408 55.4751 20.472C55.4751 16.536 58.5231 13.656 62.3871 13.656C66.2031 13.656 69.2751 16.536 69.2751 20.472C69.2751 24.432 66.1791 27.288 62.3871 27.288ZM62.3871 24.408C64.4751 24.408 65.9871 22.752 65.9871 20.472C65.9871 18.216 64.4751 16.536 62.3871 16.536C60.2511 16.536 58.7391 18.216 58.7391 20.472C58.7391 22.752 60.2511 24.408 62.3871 24.408ZM71.6593 12.48V9.12H74.8033V12.48H71.6593ZM71.6593 27V13.944H74.8033V27H71.6593ZM83.6582 27.144C80.7062 27.144 79.0262 25.44 79.0262 22.512V16.752H76.7702V13.944H77.0102C78.2822 13.944 79.0262 13.248 79.0262 11.976V10.968H82.1702V13.944H85.1702V16.752H82.1702V22.344C82.1702 23.664 82.8422 24.384 84.3782 24.384C84.5942 24.384 84.9062 24.36 85.2182 24.312V27C84.7622 27.072 84.1382 27.144 83.6582 27.144ZM87.6203 27V8.832H90.7643V15.24C91.5083 14.184 92.7803 13.656 94.2683 13.656C97.1483 13.656 99.1883 15.672 99.1883 18.6V27H96.0443V19.344C96.0443 17.616 94.9403 16.536 93.4043 16.536C91.8683 16.536 90.7643 17.64 90.7643 19.344V27H87.6203ZM100.647 27L106.815 9.12H111.039L117.207 27H113.655L112.383 23.16H105.471L104.175 27H100.647ZM106.407 20.28H111.447L108.927 12.744L106.407 20.28ZM119.197 27V9.12H122.461V27H119.197Z" fill="#1E1E1E"/>
</svg>
